<svg xmlns="http://www.w3.org/2000/svg" width="32.937" height="32.938" viewBox="0 0 32.937 32.938"><defs><style>.a{fill:#ba1e22;}</style></defs><path class="a" d="M32.122,6.7a.822.822,0,0,0,.815-.807V.815A.813.813,0,0,0,32.122,0H27.044a.811.811,0,0,0-.807.815V2.583H6.7V.815A.822.822,0,0,0,5.893,0H.815A.824.824,0,0,0,0,.815V5.893A.811.811,0,0,0,.815,6.7H2.583V26.237H.815A.822.822,0,0,0,0,27.044v5.078a.824.824,0,0,0,.815.815H5.893a.811.811,0,0,0,.807-.815V30.354H26.237v1.768a.822.822,0,0,0,.807.815h5.078a.824.824,0,0,0,.815-.815V27.044a.811.811,0,0,0-.815-.807H30.354V6.7ZM1.615,5.086V1.615H5.086V5.086ZM5.086,31.323H1.615V27.852H5.086Zm21.151-4.279v1.7H6.7v-1.7a.81.81,0,0,0-.807-.807H4.2V6.7h1.7A.81.81,0,0,0,6.7,5.893V4.2H26.237v1.7a.81.81,0,0,0,.807.807h1.7V26.237h-1.7A.81.81,0,0,0,26.237,27.044Zm5.086.807v3.471H27.852V27.852ZM27.852,5.086V1.615h3.471V5.086Z"/></svg>