<svg xmlns="http://www.w3.org/2000/svg" width="52" height="52" viewBox="0 0 52 52"><defs><style>.a{fill:#fff;}</style></defs><path class="a" d="M216.953,211.977A4.977,4.977,0,1,1,211.977,207,4.976,4.976,0,0,1,216.953,211.977Zm0,0" transform="translate(-185.977 -185.977)"/><path class="a" d="M159.363,138.923a4.944,4.944,0,0,0-2.833-2.833,8.26,8.26,0,0,0-2.772-.514c-1.575-.072-2.047-.087-6.033-.087s-4.459.015-6.033.087a8.265,8.265,0,0,0-2.772.514,4.946,4.946,0,0,0-2.834,2.833,8.263,8.263,0,0,0-.514,2.772c-.072,1.574-.087,2.046-.087,6.033s.015,4.458.087,6.033a8.26,8.26,0,0,0,.514,2.772,4.944,4.944,0,0,0,2.833,2.833,8.25,8.25,0,0,0,2.772.514c1.574.072,2.046.087,6.033.087s4.459-.015,6.033-.087a8.25,8.25,0,0,0,2.772-.514,4.944,4.944,0,0,0,2.833-2.833,8.268,8.268,0,0,0,.514-2.772c.072-1.575.087-2.047.087-6.033s-.015-4.459-.087-6.033a8.25,8.25,0,0,0-.514-2.772Zm-11.638,16.471a7.666,7.666,0,1,1,7.666-7.666A7.666,7.666,0,0,1,147.725,155.395Zm7.969-13.844a1.792,1.792,0,1,1,1.792-1.792A1.792,1.792,0,0,1,155.694,141.55Zm0,0" transform="translate(-121.725 -121.728)"/><path class="a" d="M26,0A26,26,0,1,0,52,26,26,26,0,0,0,26,0ZM40.84,32.155a10.954,10.954,0,0,1-.694,3.624,7.634,7.634,0,0,1-4.366,4.366,10.961,10.961,0,0,1-3.624.694c-1.592.073-2.1.09-6.155.09s-4.563-.017-6.156-.09a10.961,10.961,0,0,1-3.624-.694,7.634,7.634,0,0,1-4.366-4.366,10.951,10.951,0,0,1-.694-3.624c-.073-1.592-.09-2.1-.09-6.156s.017-4.563.09-6.155a10.955,10.955,0,0,1,.693-3.624,7.639,7.639,0,0,1,4.367-4.366,10.964,10.964,0,0,1,3.624-.694c1.592-.073,2.1-.09,6.155-.09s4.563.017,6.155.09a10.966,10.966,0,0,1,3.624.693,7.636,7.636,0,0,1,4.366,4.367,10.952,10.952,0,0,1,.694,3.624c.073,1.592.09,2.1.09,6.155S40.913,30.563,40.84,32.155Zm0,0"/></svg>