<svg xmlns="http://www.w3.org/2000/svg" width="49" height="49" viewBox="0 0 49 49"><defs><style>.a{fill:#fff;}</style></defs><path class="a" d="M24.5,0A24.5,24.5,0,1,0,49,24.5,24.5,24.5,0,0,0,24.5,0ZM17.381,37.037H11.414V19.086h5.967ZM14.4,16.634h-.039a3.11,3.11,0,1,1,.079-6.2,3.111,3.111,0,1,1-.04,6.2Zm24.5,20.4H32.93v-9.6c0-2.414-.864-4.06-3.023-4.06a3.266,3.266,0,0,0-3.061,2.182,4.086,4.086,0,0,0-.2,1.456V37.037H20.683s.078-16.267,0-17.951h5.966v2.542a5.924,5.924,0,0,1,5.377-2.963c3.926,0,6.869,2.566,6.869,8.079Zm0,0"/></svg>