<svg xmlns="http://www.w3.org/2000/svg" width="49" height="49" viewBox="0 0 49 49"><defs><style>.a{fill:#fff;}</style></defs><path class="a" d="M24.5,0A24.5,24.5,0,1,0,49,24.5,24.5,24.5,0,0,0,24.5,0ZM35.686,19.1q.016.362.016.727c0,7.431-5.656,16-16,16h0a15.917,15.917,0,0,1-8.62-2.526,11.437,11.437,0,0,0,1.341.078,11.283,11.283,0,0,0,6.984-2.407,5.63,5.63,0,0,1-5.254-3.906,5.6,5.6,0,0,0,2.54-.1,5.625,5.625,0,0,1-4.512-5.512c0-.025,0-.048,0-.072a5.585,5.585,0,0,0,2.547.7,5.628,5.628,0,0,1-1.741-7.507,15.966,15.966,0,0,0,11.591,5.876,5.626,5.626,0,0,1,9.583-5.128,11.279,11.279,0,0,0,3.571-1.365,5.645,5.645,0,0,1-2.473,3.11,11.215,11.215,0,0,0,3.229-.886,11.428,11.428,0,0,1-2.8,2.912Zm0,0"/></svg>