<svg xmlns="http://www.w3.org/2000/svg" width="41.333" height="38.588" viewBox="0 0 41.333 38.588"><defs><style>.a{fill:#ba1e22;}</style></defs><path class="a" d="M40.122,37.505a1.211,1.211,0,0,0,1.211-1.211V27.253a1.211,1.211,0,0,0-1.211-1.211H21.878V18.211A1.211,1.211,0,0,0,20.667,17H7.75a1.211,1.211,0,0,0-1.211,1.211v7.831H1.211A1.211,1.211,0,0,0,0,27.253v9.042a1.211,1.211,0,0,0,1.211,1.211H6.539v6.62H1.211A1.211,1.211,0,0,0,0,45.336v9.042a1.211,1.211,0,0,0,1.211,1.211H40.122a1.211,1.211,0,0,0,1.211-1.211V45.336a1.211,1.211,0,0,0-1.211-1.211H34.794v-6.62Zm-1.211-2.422H28.336v-6.62H38.911Zm-13,0H15.419v-6.62H25.914ZM8.961,19.422H19.456v6.62H8.961ZM2.422,35.083v-6.62H13v6.62Zm6.539,2.422H19.456v6.62H8.961ZM2.422,46.547H13v6.62H2.422Zm13,0H25.914v6.62H15.419Zm23.492,0v6.62H28.336v-6.62Zm-6.539-2.422H21.878v-6.62H32.372Z" transform="translate(0 -17)"/></svg>