<svg xmlns="http://www.w3.org/2000/svg" width="37.943" height="41.172" viewBox="0 0 37.943 41.172"><defs><style>.a{fill:#ba1e22;}</style></defs><path class="a" d="M47.851,23.008v1.211h8.477V23.008A10.949,10.949,0,0,0,45.391,12.071l-.409,0a1.954,1.954,0,0,1-1.975-1.954V6.055H39.375V3.633H45.43V1.211H39.375V0H36.953V1.211H30.9V3.633h6.055V6.055H33.32V9.822a2.29,2.29,0,0,1-2.288,2.288H27.249a4,4,0,0,0-3.976-3.633H20V24.219h3.273a4,4,0,0,0,3.976-3.633H45.43A2.425,2.425,0,0,1,47.851,23.008ZM35.742,9.822V8.477h4.844v1.645A4.376,4.376,0,0,0,45.009,14.5l.389,0a8.528,8.528,0,0,1,8.423,7.3h-3.7a4.852,4.852,0,0,0-4.691-3.633H27.266V14.531h3.767a4.715,4.715,0,0,0,4.709-4.709Zm-10.9,10.4A1.572,1.572,0,0,1,23.273,21.8h-.851V10.9h.851a1.572,1.572,0,0,1,1.571,1.571Z" transform="translate(-20 0)"/><path class="a" d="M358.846,331.958a36.173,36.173,0,0,0-2.306-2.807l-.888-.959-.888.959a36.173,36.173,0,0,0-2.306,2.807C350.8,334.2,350,335.92,350,337.219a5.651,5.651,0,1,0,11.3,0C361.3,335.92,360.5,334.2,358.846,331.958Zm-3.194,8.49a3.233,3.233,0,0,1-3.229-3.229c0-.265.142-1.323,1.971-3.806.444-.6.891-1.157,1.261-1.6,1.527,1.827,3.226,4.284,3.226,5.405A3.233,3.233,0,0,1,355.651,340.448Z" transform="translate(-323.359 -301.698)"/></svg>