<svg xmlns="http://www.w3.org/2000/svg" width="49" height="49" viewBox="0 0 49 49"><defs><style>.a{fill:#fff;}</style></defs><path class="a" d="M224.113,217.241l7.988-4.6-7.988-4.6Zm0,0" transform="translate(-202.675 -188.14)"/><path class="a" d="M24.5,0A24.5,24.5,0,1,0,49,24.5,24.5,24.5,0,0,0,24.5,0ZM39.809,24.525a40.437,40.437,0,0,1-.63,7.365,3.836,3.836,0,0,1-2.7,2.7c-2.4.631-11.98.631-11.98.631s-9.559,0-11.98-.656a3.837,3.837,0,0,1-2.7-2.7A40.259,40.259,0,0,1,9.191,24.5a40.41,40.41,0,0,1,.631-7.364,3.914,3.914,0,0,1,2.7-2.724c2.4-.631,11.98-.631,11.98-.631s9.584,0,11.98.656a3.837,3.837,0,0,1,2.7,2.7,38.374,38.374,0,0,1,.63,7.389Zm0,0"/></svg>